<svg aria-hidden="true" style="position: absolute; width: 0; height: 0; overflow: hidden;" version="1.1" xmlns="http://www.w3.org/2000/svg" xmlns:xlink="http://www.w3.org/1999/xlink">
<defs>
<symbol id="icon-search" viewBox="0 0 64 64">
<path d="M57.893 54.108l-9.893-9.813c3.84-4.788 5.7-10.866 5.197-16.983s-3.331-11.809-7.902-15.906c-4.571-4.096-10.538-6.286-16.674-6.118s-11.974 2.68-16.314 7.020c-4.34 4.34-6.853 10.178-7.021 16.314s2.021 12.102 6.118 16.673c4.096 4.571 9.788 7.399 15.906 7.902s12.195-1.356 16.983-5.197l9.813 9.813c0.248 0.25 0.543 0.448 0.868 0.584s0.673 0.205 1.025 0.205 0.7-0.070 1.025-0.205c0.325-0.135 0.62-0.334 0.868-0.584 0.481-0.497 0.749-1.162 0.749-1.853s-0.268-1.356-0.749-1.853zM29.333 48.001c-3.692 0-7.301-1.095-10.371-3.146s-5.462-4.966-6.875-8.377c-1.413-3.411-1.783-7.164-1.062-10.785s2.498-6.947 5.109-9.558c2.611-2.611 5.937-4.388 9.558-5.109s7.374-0.351 10.785 1.062c3.411 1.413 6.326 3.805 8.377 6.875s3.146 6.679 3.146 10.371c0 4.951-1.967 9.698-5.467 13.199s-8.249 5.467-13.199 5.467z"></path>
</symbol>

<symbol id="chevron" viewBox="0 0 64 64">
<path stroke-linejoin="round" stroke-linecap="round" stroke-miterlimit="4" stroke-width="7.1111" d="M16 24l16 16 16-16"></path>
</symbol>
</defs>
</svg>
